<?xml version="1.0" encoding="utf-8"?>
<!-- Generator: Adobe Illustrator 25.4.1, SVG Export Plug-In . SVG Version: 6.00 Build 0)  -->
<svg version="1.1" id="Layer_1" xmlns="http://www.w3.org/2000/svg" xmlns:xlink="http://www.w3.org/1999/xlink" x="0px" y="0px"
	 width="820px" height="630.404px" viewBox="0 0 820 630.404" style="enable-background:new 0 0 820 630.404;" xml:space="preserve"
	>
<style type="text/css">
	.st0{display:none;}
	.st1{display:inline;fill:#F540DA;}
	.st2{font-family:'BlackJack';}
	.st3{font-size:54.6208px;}
	.st4{fill:#F5F5F5;}
	.st5{fill:none;}
	.st6{opacity:0.25;}
	.st7{fill:#333333;}
	.st8{fill:#6E7C7C;}
	.st9{opacity:0.75;}
	.st10{fill:#3A8DDE;}
	.st11{fill:#FFFFFF;}
	.st12{opacity:0.7;}
	.st13{fill:#1CD0BB;}
</style>
<g id="draft_-_needed_for_png_proof" class="st0">
	<text transform="matrix(0.9934 -0.115 0.115 0.9934 689.1864 602.7348)" class="st1 st2 st3">draft</text>
</g>
<g id="GUIDE">
	<rect x="136.412" y="124.519" class="st4" width="567.431" height="387.842"/>
	<g>
		<path class="st5" d="M701.882,512.361H137.557c-1.379,0-2.507-1.128-2.507-2.507V123.836c0-1.379,1.128-2.507,2.507-2.507h564.325
			c1.379,0,2.507,1.128,2.507,2.507v386.018C704.388,511.233,703.26,512.361,701.882,512.361z"/>
	</g>
	<g class="st6">
		<path class="st7" d="M702.945,467.682H135.938c-0.276,0-0.5-0.224-0.5-0.5s0.224-0.5,0.5-0.5h567.008c0.276,0,0.5,0.224,0.5,0.5
			S703.222,467.682,702.945,467.682z"/>
		<path class="st7" d="M702.945,425.041H135.938c-0.276,0-0.5-0.224-0.5-0.5s0.224-0.5,0.5-0.5h567.008c0.276,0,0.5,0.224,0.5,0.5
			S703.222,425.041,702.945,425.041z"/>
		<path class="st7" d="M702.945,382.4H135.938c-0.276,0-0.5-0.224-0.5-0.5s0.224-0.5,0.5-0.5h567.008c0.276,0,0.5,0.224,0.5,0.5
			S703.222,382.4,702.945,382.4z"/>
		<path class="st7" d="M702.945,339.759H135.938c-0.276,0-0.5-0.224-0.5-0.5s0.224-0.5,0.5-0.5h567.008c0.276,0,0.5,0.224,0.5,0.5
			S703.222,339.759,702.945,339.759z"/>
		<path class="st7" d="M702.945,297.119H135.938c-0.276,0-0.5-0.224-0.5-0.5s0.224-0.5,0.5-0.5h567.008c0.276,0,0.5,0.224,0.5,0.5
			S703.222,297.119,702.945,297.119z"/>
		<path class="st7" d="M702.945,254.478H135.938c-0.276,0-0.5-0.224-0.5-0.5s0.224-0.5,0.5-0.5h567.008c0.276,0,0.5,0.224,0.5,0.5
			S703.222,254.478,702.945,254.478z"/>
		<path class="st7" d="M702.945,211.837H135.938c-0.276,0-0.5-0.224-0.5-0.5s0.224-0.5,0.5-0.5h567.008c0.276,0,0.5,0.224,0.5,0.5
			S703.222,211.837,702.945,211.837z"/>
		<path class="st7" d="M702.945,169.197H135.938c-0.276,0-0.5-0.224-0.5-0.5s0.224-0.5,0.5-0.5h567.008c0.276,0,0.5,0.224,0.5,0.5
			S703.222,169.197,702.945,169.197z"/>
	</g>
	<g class="st6">
		<path class="st7" d="M624.654,513.05c-0.276,0-0.5-0.224-0.5-0.5V124.812c0-0.276,0.224-0.5,0.5-0.5s0.5,0.224,0.5,0.5V512.55
			C625.154,512.826,624.931,513.05,624.654,513.05z"/>
		<path class="st7" d="M542.944,513.05c-0.276,0-0.5-0.224-0.5-0.5V124.812c0-0.276,0.224-0.5,0.5-0.5s0.5,0.224,0.5,0.5V512.55
			C543.444,512.826,543.221,513.05,542.944,513.05z"/>
		<path class="st7" d="M461.234,513.05c-0.276,0-0.5-0.224-0.5-0.5V124.812c0-0.276,0.224-0.5,0.5-0.5s0.5,0.224,0.5,0.5V512.55
			C461.734,512.826,461.511,513.05,461.234,513.05z"/>
		<path class="st7" d="M379.524,513.05c-0.276,0-0.5-0.224-0.5-0.5V124.812c0-0.276,0.224-0.5,0.5-0.5s0.5,0.224,0.5,0.5V512.55
			C380.024,512.826,379.8,513.05,379.524,513.05z"/>
		<path class="st7" d="M297.814,513.05c-0.276,0-0.5-0.224-0.5-0.5V124.812c0-0.276,0.224-0.5,0.5-0.5s0.5,0.224,0.5,0.5V512.55
			C298.314,512.826,298.09,513.05,297.814,513.05z"/>
		<path class="st7" d="M216.104,513.05c-0.276,0-0.5-0.224-0.5-0.5V124.812c0-0.276,0.224-0.5,0.5-0.5s0.5,0.224,0.5,0.5V512.55
			C216.604,512.826,216.38,513.05,216.104,513.05z"/>
	</g>
	<path class="st8" d="M135.92,512.744c-0.276,0-0.5-0.224-0.5-0.5V122.506c0-0.276,0.224-0.5,0.5-0.5s0.5,0.224,0.5,0.5v389.738
		C136.42,512.521,136.197,512.744,135.92,512.744z"/>
</g>
<g id="area_chart_graphics">
	<g class="st9">
		<polyline class="st10" points="178.379,510.274 208.307,507.281 225.267,504.289 243.224,499.301 261.181,486.331 272.155,474.36 
			291.11,455.405 310.065,434.455 328.022,414.503 342.987,397.543 350.968,384.574 354.958,371.605 366.93,359.633 377.903,335.69 
			385.884,312.745 396.858,290.797 404.839,272.84 411.823,256.878 422.796,239.919 433.77,226.949 444.744,217.971 
			458.711,212.983 466.692,205.002 476.668,205.999 490.52,211.389 498.616,220.964 507.594,244.907 511.585,262.864 
			516.573,295.785 526.549,318.731 532.535,344.669 536.525,357.638 548.497,373.6 555.48,381.581 571.442,385.572 574.435,397.543 
			584.411,407.519 591.395,418.493 616.335,437.448 622.321,451.415 637.285,461.391 657.238,467.377 673.2,471.367 
			685.164,471.367 689.155,478.35 692.148,512.27 		"/>
		<polygon class="st11" points="691.649,512.313 688.666,478.504 684.874,471.867 673.079,471.853 657.117,467.862 637.008,461.807 
			621.92,451.749 615.928,437.767 590.973,418.762 584.019,407.834 573.984,397.799 571.03,385.983 555.207,382.028 
			548.121,373.929 536.048,357.785 532.058,344.816 526.062,318.843 516.079,295.86 511.091,262.938 507.106,245.015 
			498.179,221.221 490.22,211.81 476.55,206.49 466.877,205.522 458.879,213.454 444.994,218.413 434.087,227.336 423.179,240.241 
			412.242,257.149 405.297,273.04 397.315,291 386.332,312.969 378.375,335.854 367.283,359.987 355.399,371.871 351.394,384.836 
			343.413,397.805 328.397,414.834 310.437,434.789 291.481,455.741 272.509,474.714 261.475,486.736 243.358,499.782 
			225.401,504.771 208.395,507.773 178.429,510.771 178.329,509.777 208.258,506.784 225.18,503.797 243.004,498.843 
			260.848,485.955 271.787,474.022 290.757,455.052 309.694,434.119 327.651,414.168 342.612,397.212 350.508,384.366 
			354.517,371.339 366.513,359.343 377.449,335.482 385.412,312.581 396.411,290.574 404.382,272.637 411.364,256.678 
			422.377,239.647 433.389,226.626 444.576,217.5 458.437,212.55 466.506,204.48 476.85,205.534 490.819,210.97 499.084,220.788 
			508.062,244.731 512.073,262.755 517.058,295.646 527.008,318.532 533.022,344.557 536.978,357.408 548.897,373.3 
			555.754,381.134 571.854,385.159 574.887,397.287 584.833,407.251 591.769,418.149 616.742,437.13 616.795,437.251 
			622.723,451.081 637.5,460.934 657.382,466.898 673.262,470.867 685.454,470.867 689.652,478.307 692.646,512.226 		"/>
	</g>
	<g class="st12">
		<path class="st13" d="M144.46,512.044l7.785-0.834l20.149-2.159l19.952-8.979l20.95-13.967l7.981-18.955l10.974-16.96
			l6.983-42.898c0,0,8.979-59.857,10.974-62.85s12.969-42.898,12.969-42.898l13.967-32.922l16.96-19.952l14.964,0.998l14.964,19.952
			l6.983,15.962l10.974,5.986l9.976-9.976l11.971-8.979l9.976,8.979l10.974,10.974l11.971,6.983l12.969,7.981l14.964,9.976
			l15.962-4.988l9.976,0.998h11.971l13.967-1.995l4.988,6.983l10.974,3.99l2.993,11.971c0,0,3.99,13.967,6.983,13.967
			s8.979,21.948,8.979,21.948l2.993,18.955l4.988,17.957l7.981,9.976l19.952,0.998h27.933l11.971,6.983l15.962,0.998l9.976,5.986
			l4.988,8.979l11.971,2.993l10.974,19.952l12.969,3.991l6.983,4.988l17.957-0.998h8.971l5.686,40.131"/>
		<path class="st11" d="M144.513,512.541l-0.106-0.994l27.854-2.984l19.88-8.946l20.752-13.844l7.922-18.816l10.958-16.948
			l6.966-42.795c0.92-6.132,9.052-60.048,11.051-63.047c1.543-2.314,9.115-28.978,12.903-42.753l14.068-33.113l17.123-20.145
			l15.444,1.03l15.16,20.235l6.915,15.805l10.495,5.725l9.712-9.711l12.354-9.271l10.282,9.253l10.947,10.946l11.916,6.951
			l12.979,7.987l14.782,9.854l15.831-4.948l10.077,1.008l11.922-0.002l14.197-2.033l5.074,7.104l11.078,4.028l3.058,12.229
			c1.609,5.633,4.694,13.588,6.498,13.588c3.132,0,8.033,17.081,9.461,22.316l3.005,19.008l4.947,17.803l7.777,9.721l19.728,0.986
			l28.043-0.001l11.986,6.992l15.965,0.998l10.196,6.116l4.948,8.906l11.972,2.993l10.982,19.967l12.919,4.002l6.84,4.887
			l17.782-0.988l9.434-0.001l5.746,40.561l-0.99,0.141l-5.625-39.701h-8.537l-18.104,1.007l-7.061-5.043l-13.085-4.027
			l-10.967-19.938l-11.97-2.993l-5.028-9.051l-9.757-5.854l-15.959-0.998l-11.958-6.975h-27.798l-20.202-1.009l-8.213-10.331
			l-4.987-17.957l-3.006-19.01c-2.818-10.325-6.872-21.526-8.484-21.526c-3.208,0-6.78-11.937-7.464-14.33l-2.934-11.73
			l-10.869-3.952l-4.902-6.862l-13.666,1.952l-12.042,0.005l-9.924-0.99l-16.093,5.029l-15.163-10.109l-12.954-7.971l-12.063-7.056
			l-10.974-10.974l-9.652-8.686l-11.643,8.732l-10.188,10.194l-11.452-6.247l-7.029-16.065l-14.792-19.722l-14.484-0.966
			L277.57,268.89l-13.937,32.851c-0.427,1.57-10.997,39.955-13.014,42.98c-1.418,2.127-7.293,38.63-10.895,62.647l-7.001,43.008
			l-11.031,17.047l-7.999,19.017l-21.075,14.05l-20.177,9.06L144.513,512.541z"/>
	</g>
	<path class="st8" d="M702.945,512.907H135.938c-0.276,0-0.5-0.224-0.5-0.5s0.224-0.5,0.5-0.5h567.008c0.276,0,0.5,0.224,0.5,0.5
		S703.222,512.907,702.945,512.907z"/>
</g>
</svg>
